<svg xmlns="http://www.w3.org/2000/svg" width="130" height="32" fill="none"> <title>Tractive Blue Logo</title> <g fill="#1A73E8" fill-rule="evenodd" clip-path="url(#a)" clip-rule="evenodd"> <path d="M13.738 0C6.13-.052-.12 6.355.002 13.737c0 6.646 6.082 12.149 10.522 16.166.492.444.963.87 1.404 1.279.418.4 1.062.818 1.81.818.75 0 1.393-.418 1.811-.818.454-.422.941-.863 1.45-1.324 4.425-4.013 10.476-9.5 10.476-16.121C27.58 6.355 21.33-.053 13.738 0m0 22.999c-5.1 0-9.244-4.144-9.244-9.245s4.143-9.245 9.244-9.245c5.102 0 9.245 4.144 9.245 9.245s-4.143 9.245-9.245 9.245M11.615 8.218a1.68 1.68 0 0 0-1.69 1.688c0 .94.75 1.69 1.69 1.69a1.68 1.68 0 0 0 1.688-1.69 1.68 1.68 0 0 0-1.688-1.688m-.836 5.327a1.689 1.689 0 1 1-3.378 0 1.689 1.689 0 0 1 3.378 0m7.608 1.689a1.689 1.689 0 1 0 0-3.378 1.689 1.689 0 0 0 0 3.378m-2.542-3.639a1.68 1.68 0 0 0 1.689-1.689 1.68 1.68 0 0 0-1.689-1.688 1.68 1.68 0 0 0-1.689 1.688c0 .94.749 1.69 1.689 1.69m.81 4.374c.183.168.366.336.5.545.224.346.287.785.219 1.192-.073.439-.3.852-.637 1.14a1.74 1.74 0 0 1-1.231.415c-.242-.017-.474-.087-.707-.158-.128-.038-.256-.077-.385-.107a2.94 2.94 0 0 0-1.348 0c-.126.03-.251.068-.376.106-.236.07-.47.142-.715.159a1.73 1.73 0 0 1-1.231-.415 1.94 1.94 0 0 1-.637-1.14c-.068-.409-.004-.846.22-1.192.133-.21.316-.377.5-.544q.13-.12.255-.243c.329-.336.576-.75.717-1.2.042-.132.074-.268.106-.403.06-.246.118-.492.23-.716a1.77 1.77 0 0 1 1.605-.958q.264-.002.516.066c.464.133.874.46 1.09.892.11.224.17.47.229.715a6 6 0 0 0 .107.404c.14.448.388.864.717 1.2q.124.125.255.242M101.885 6.856a2.325 2.325 0 1 1-4.65 0 2.325 2.325 0 0 1 4.65 0m-68.995.451v3.652h5.063v13.39h4.14v-13.39h5.184V7.307zm24.539 4.09-.01.037-1.06 4.27a2.5 2.5 0 0 0-.718-.279 4 4 0 0 0-.938-.107q-.537 0-.998.181a2.1 2.1 0 0 0-.78.523 2.6 2.6 0 0 0-.498.804 2.8 2.8 0 0 0-.182 1.049v6.473h-3.918V11.421h3.698v.012l.08 1.965q.148-.23.322-.445a5.2 5.2 0 0 1 1.57-1.314q.217-.118.44-.206a4 4 0 0 1 1.485-.28q.437 0 .813.071.378.076.694.171zm10.176 1.59V11.42h3.873v12.927h-3.945v-1.54q-.361.42-.827.762a5.3 5.3 0 0 1-1.558.777 5 5 0 0 1-1.51.218 5.4 5.4 0 0 1-1.552-.218 4.8 4.8 0 0 1-1.357-.643q-1.28-.865-2.034-2.388c-.502-1.014-.754-2.127-.754-3.443q-.001-1.972.754-3.484.756-1.508 2.07-2.372a5.1 5.1 0 0 1 1.197-.584 5.7 5.7 0 0 1 1.798-.28q.924 0 1.692.268l.018.006.012.004.005.002a4.4 4.4 0 0 1 1.315.729q.453.368.803.824m-1.337 7.88q.658-.412 1.021-1.18.366-.767.366-1.814c0-.697-.122-1.305-.366-1.814a2.83 2.83 0 0 0-1.02-1.194c-.44-.283-.977-.425-1.56-.425q-.877 0-1.523.425-.645.429-1.01 1.194-.365.767-.365 1.814t.366 1.813q.365.767 1.01 1.18c.43.278.92.415 1.521.415q.902 0 1.56-.414m16.361-.317q-.45.316-.986.475a4 4 0 0 1-1.168.158q-.9 0-1.607-.439a3.05 3.05 0 0 1-1.108-1.192 3.5 3.5 0 0 1-.401-1.68q0-.973.389-1.727.39-.755 1.096-1.182.705-.426 1.631-.426.608.001 1.168.194.56.195 1.022.536.462.343.803.73l2.118-2.531q-.851-1.095-2.299-1.704-.464-.195-.957-.328a8.5 8.5 0 0 0-2.22-.28q-1.061 0-1.996.28a6.2 6.2 0 0 0-1.364.595 6.4 6.4 0 0 0-2.35 2.399q-.864 1.52-.864 3.444 0 1.925.864 3.446a6.4 6.4 0 0 0 2.35 2.397q.7.413 1.49.632.88.245 1.87.245a8.5 8.5 0 0 0 2.049-.245 8 8 0 0 0 1.104-.364q1.471-.608 2.3-1.656l-2.094-2.555q-.39.462-.84.78zm13.03-6.04v-3.09h-2.508V8.16h-3.895v3.26h-2.29v3.09h2.29v9.837h3.895V14.51zm21.657-3.09-.007.014-5.667 12.913h-3.067l-5.4-12.913-.005-.013h4.309l.005.014 2.755 7.649 2.811-7.65.005-.013zm10.819 1.584a6 6 0 0 1 1.269 2.074l-.003-.006q.395 1.073.394 2.322 0 .14-.004.283l-.025 1.047h-8.877c.072.285.181.547.319.79.301.53.739.937 1.315 1.231q.864.437 2.057.438.828 0 1.474-.244.643-.243 1.399-.828l1.826 2.58a7.3 7.3 0 0 1-1.607 1.072 8.2 8.2 0 0 1-1.741.621 7.8 7.8 0 0 1-1.765.208 8.8 8.8 0 0 1-2.122-.245 6.7 6.7 0 0 1-1.604-.62q-1.581-.861-2.457-2.36-.876-1.5-.876-3.42.001-1.486.488-2.726a6.5 6.5 0 0 1 1.362-2.156 6 6 0 0 1 2.082-1.411q.302-.126.617-.22a7.2 7.2 0 0 1 2.024-.28q1.038-.001 1.942.28.283.09.553.206 1.133.488 1.96 1.364m-7.258 3.53h5.312v-.027a2.2 2.2 0 0 0-.378-1.083 2.25 2.25 0 0 0-.866-.741 2.7 2.7 0 0 0-1.217-.27q-.949 0-1.618.378a2.4 2.4 0 0 0-1.009 1.096 3.2 3.2 0 0 0-.224.647M97.612 11.42v12.927h3.896V11.421z"></path> </g> <defs> <clipPath id="a"> <path fill="#fff" d="M0 0h129.795v32H0z"></path> </clipPath> </defs> </svg>